<?xml version="1.0" encoding="utf-8"?>
<!-- Generator: Adobe Illustrator 25.0.1, SVG Export Plug-In . SVG Version: 6.00 Build 0)  -->
<svg version="1.1" id="Layer_1" xmlns="http://www.w3.org/2000/svg" xmlns:xlink="http://www.w3.org/1999/xlink" x="0px" y="0px"
	 viewBox="0 0 50 50" style="enable-background:new 0 0 50 50;" xml:space="preserve">
<style type="text/css">
	.st0{fill:#454545;}
</style>
<g>
	<path class="st0" d="M31.9,43.1c-0.4,0-0.8-0.1-1.1-0.4l-5.6-4.1c-0.1-0.1-0.3-0.1-0.4,0l-5.6,4.1c-0.7,0.5-1.5,0.5-2.2,0
		c-0.7-0.5-0.9-1.3-0.7-2.1l2.1-6.6c0-0.2,0-0.3-0.1-0.4l-5.6-4.1c-0.7-0.5-0.9-1.3-0.7-2.1c0.3-0.8,1-1.3,1.8-1.3h6.9
		c0.2,0,0.3-0.1,0.4-0.2l2.1-6.6c0.3-0.8,1-1.3,1.8-1.3s1.5,0.5,1.8,1.3l0,0l2.1,6.6c0,0.1,0.2,0.2,0.4,0.2h6.9
		c0.8,0,1.5,0.5,1.8,1.3c0.3,0.8,0,1.6-0.7,2.1l-5.6,4.1c-0.1,0.1-0.2,0.3-0.1,0.4l2.1,6.6c0.3,0.8,0,1.6-0.7,2.1
		C32.7,43,32.3,43.1,31.9,43.1z M25,37.1c0.4,0,0.8,0.1,1.1,0.4l5.6,4.1c0.2,0.1,0.4,0,0.4,0c0.1,0,0.2-0.2,0.1-0.4l-2.1-6.6
		c-0.2-0.8,0-1.6,0.7-2.1l5.6-4.1c0.2-0.1,0.2-0.3,0.1-0.4c0-0.1-0.1-0.2-0.3-0.2h-6.9c-0.8,0-1.5-0.5-1.8-1.3l-2.1-6.6l0,0
		c-0.1-0.2-0.3-0.2-0.4-0.2s-0.3,0-0.4,0.2l-2.1,6.6c-0.2,0.8-1,1.3-1.8,1.3h-6.9c-0.2,0-0.3,0.2-0.4,0.2c0,0.1-0.1,0.3,0.1,0.4
		l5.6,4.1c0.7,0.5,0.9,1.3,0.7,2.1l-2.1,6.6c-0.1,0.2,0.1,0.4,0.1,0.4c0.1,0,0.2,0.1,0.4,0l5.6-4.1C24.2,37.2,24.6,37.1,25,37.1z"/>
	<g>
		<path class="st0" d="M10.6,43c-0.2,0-0.5-0.1-0.7-0.2L7,40.6l-2.9,2.1c-0.4,0.3-1,0.3-1.4,0c-0.4-0.3-0.6-0.8-0.4-1.3L3.4,38
			l-2.9-2.1c-0.4-0.3-0.6-0.8-0.4-1.3s0.6-0.8,1.1-0.8h3.6l1.1-3.4c0.2-0.5,0.6-0.8,1.1-0.8s1,0.3,1.1,0.8l0,0l1.1,3.4l3.6,0
			c0.5,0,1,0.3,1.1,0.8s0,1-0.4,1.3L10.6,38l1.1,3.4c0.2,0.5,0,1-0.4,1.3C11.1,42.9,10.9,43,10.6,43z M7,39.4c0.2,0,0.5,0.1,0.7,0.2
			l2.9,2.1l-1.1-3.4c-0.2-0.5,0-1,0.4-1.3l2.9-2.1H9.3c-0.5,0-1-0.3-1.1-0.8L7,30.7l-1.1,3.4c-0.2,0.5-0.6,0.8-1.1,0.8H1.2L4.1,37
			c0.4,0.3,0.6,0.8,0.4,1.3l-1.1,3.4l2.9-2.1C6.5,39.5,6.8,39.4,7,39.4z"/>
		<path class="st0" d="M39.4,43c-0.2,0-0.5-0.1-0.7-0.2c-0.4-0.3-0.6-0.8-0.4-1.3l1.1-3.4l-2.9-2.1c-0.4-0.3-0.6-0.8-0.4-1.3
			s0.6-0.8,1.1-0.8h3.6l1.1-3.4c0.2-0.5,0.6-0.8,1.1-0.8s1,0.3,1.1,0.8l0,0l1.1,3.4l3.6,0c0.5,0,1,0.3,1.1,0.8s0,1-0.4,1.3L46.6,38
			l1.1,3.4c0.2,0.5,0,1-0.4,1.3c-0.4,0.3-1,0.3-1.4,0L43,40.6l-2.9,2.1C39.8,42.9,39.6,43,39.4,43z M43,39.4c0.2,0,0.5,0.1,0.7,0.2
			l2.9,2.1l-1.1-3.4c-0.2-0.5,0-1,0.4-1.3l2.9-2.1h-3.6c-0.5,0-1-0.3-1.1-0.8L43,30.7l-1.1,3.4c-0.2,0.5-0.6,0.8-1.1,0.8h-3.6
			l2.9,2.1c0.4,0.3,0.6,0.8,0.4,1.3l-1.1,3.4l2.9-2.1C42.5,39.5,42.7,39.4,43,39.4z"/>
	</g>
	<path class="st0" d="M25,15.8c-0.3,0-0.6-0.3-0.6-0.6v-4.9c0-0.3,0.3-0.6,0.6-0.6s0.6,0.3,0.6,0.6v4.9C25.6,15.5,25.3,15.8,25,15.8
		z"/>
	<g>
		<path class="st0" d="M21,16.7c-0.1,0-0.3-0.1-0.4-0.2l-5.4-5.4c-0.2-0.2-0.2-0.6,0-0.9c0.2-0.2,0.6-0.2,0.9,0l5.4,5.4
			c0.2,0.2,0.2,0.6,0,0.9C21.3,16.7,21.2,16.7,21,16.7z"/>
		<path class="st0" d="M28.9,16.7c-0.1,0-0.3-0.1-0.4-0.2c-0.2-0.2-0.2-0.6,0-0.9l5.4-5.4c0.2-0.2,0.6-0.2,0.8,0
			c0.2,0.2,0.2,0.6,0,0.9l-5.4,5.4C29.2,16.7,29.1,16.7,28.9,16.7z"/>
	</g>
	<circle class="st0" cx="25" cy="7.6" r="0.7"/>
</g>
</svg>
