<?xml version="1.0" encoding="utf-8"?>
<!-- Generator: Adobe Illustrator 25.0.1, SVG Export Plug-In . SVG Version: 6.00 Build 0)  -->
<svg version="1.1" id="Layer_1" xmlns="http://www.w3.org/2000/svg" xmlns:xlink="http://www.w3.org/1999/xlink" x="0px" y="0px"
	 viewBox="0 0 50 50" style="enable-background:new 0 0 50 50;" xml:space="preserve">
<style type="text/css">
	.st0{fill:#454545;}
</style>
<g>
	<g>
		<path class="st0" d="M33.8,50c-1.8,0-3.6-0.2-5.6-0.7c-5.1-1.2-9.7-3.6-14.1-7.4l-0.6-0.5L13.1,41c-1.9-1.8-3.5-3.6-4.9-5.4
			C8,35.4,7.9,35.2,7.7,35c-3.5-4.9-5.4-9.7-6-14.9c-0.3-2.9,0-5.5,0.7-7.9C3.7,8.6,5.8,5.8,9,3.9c0.8-0.5,1.6-0.7,2.4-0.7
			c1.8,0,3.5,1.1,4.3,2.9c0.4,1,0.9,1.9,1.3,2.9c0.4,0.9,0.8,1.8,1.2,2.6c0.6,1.4,0.5,2.6-0.2,3.9c-0.4,0.6-1,1.1-1.6,1.5l-0.7,0.4
			c-0.5,0.3-1.1,0.5-1.6,0.8c-1.4,0.7-2.1,2.3-1.6,3.8c0.2,0.7,0.4,1.4,0.7,2c1.8,4.3,4.7,8,8.6,11.1c2.5,2,5.1,3.3,7.9,4.1
			c0.4,0.1,0.8,0.2,1.2,0.2c1.2,0,2-0.6,2.7-1.9c0.2-0.3,0.3-0.6,0.5-0.9c0.2-0.5,0.5-1,0.7-1.4c0.6-1.2,1.6-1.9,3-2.1
			c0.2,0,0.4,0,0.6,0c0.6,0,1.3,0.2,2.1,0.6c1.3,0.6,2.6,1.2,3.9,1.8c0.3,0.2,0.7,0.3,1,0.5c0.5,0.2,1,0.4,1.4,0.6
			c0.5,0.3,0.9,0.8,1.2,1.5c0.1,0.2,0.1,0.3,0.2,0.5c0.5,1.5,0.3,3-0.4,4.3c-2.1,3.4-5.1,5.6-9.1,6.7C37,49.8,35.4,50,33.8,50z
			 M7.1,7.4C7,7.5,7,7.5,6.9,7.6C6.7,7.8,6.6,8,6.4,8.1c-2,2.4-3,5.3-3.2,8.8c-0.2,3.4,0.5,6.9,2.1,10.6c1.5,3.6,3.7,6.9,6.5,9.9
			c4,4.4,8.4,7.4,13.5,9.3c3,1.1,5.7,1.6,8.4,1.6l0,0c1.1,0,2.2-0.1,3.2-0.3c2.5-0.4,4.8-1.4,6.6-3c0.2-0.2,0.4-0.3,0.5-0.5l0.3-0.3
			l0.5-0.5l-10-4.9l-0.2,0.1c-0.1,0-0.2,0.1-0.3,0.2c-0.1,0.1-0.2,0.2-0.3,0.3c-0.9,1-2,1.4-3.2,1.4c-0.5,0-0.9-0.1-1.4-0.2
			c-0.7-0.2-1.4-0.4-2.2-0.7c-4.4-1.8-8.2-4.7-11.5-8.7c-2.2-2.7-3.8-5.7-4.8-8.9c-0.6-2-0.2-3.7,1.3-5.1c0.1,0,0.1-0.1,0.2-0.2
			l0.3-0.4L7.8,6.8L7.1,7.4z M38.2,34.6c-0.8,0-1.6,0.4-2,1.2c-0.2,0.2-0.3,0.5-0.4,0.8L35.6,37l-0.2,0.5l10.5,5.1l0.3-0.3
			c1-1.2,1-2.6,0.1-3.8c-0.4-0.6-1-0.9-1.4-1.1c-1.3-0.6-2.5-1.1-3.8-1.7l-1.5-0.7c-0.1,0-0.2-0.1-0.3-0.1
			C38.8,34.7,38.5,34.6,38.2,34.6z M11.5,4.8c-0.7,0-1.4,0.3-2,0.7L9.1,5.8l5.1,10.4l0.8-0.4c0.2-0.1,0.4-0.2,0.6-0.3
			c1.4-0.7,1.8-2.1,1.1-3.4c-0.1-0.3-0.3-0.5-0.4-0.8c-0.2-0.3-0.3-0.6-0.5-0.9c-0.3-0.6-0.5-1.2-0.8-1.8c-0.3-0.7-0.6-1.3-0.9-2
			C13.7,5.5,12.6,4.8,11.5,4.8z"/>
	</g>
	<path class="st0" d="M30.3,31.3c-0.1,0-0.2,0-0.2,0c0,0-0.1,0-0.2,0l-0.1-0.1l-0.3-0.3l-0.1-0.1c-0.1-0.1-0.2-0.2-0.3-0.4l-0.8-1
		c-0.4-0.5-0.8-1-1.2-1.5c-1.3-1.7-2.2-3.6-2.7-5.6c-0.4-1.8-0.5-3.5-0.2-5.3c0.2-1.4,0.6-2.8,1.3-4.1c0.5-1,1-1.8,1.6-2.6
		c0.1-0.1,0.2-0.3,0.3-0.4l0.3-0.4l-3.6-3.6C24.1,5.6,24,5.5,24,5.3c0-0.4,0.2-0.7,0.6-0.7c0.1,0,0.2,0,0.3,0c0,0,13.7,0,13.7,0
		c0.1,0,0.2,0,0.2,0c0.4,0,0.6,0.3,0.7,0.7c0,0.1,0,0.2,0,0.2v13.7c0,0.1,0,0.2,0,0.3C39.4,19.8,39,20,38.8,20c-0.2,0-0.3,0-0.4-0.1
		c-0.1,0-0.1-0.1-0.2-0.2l-3.6-3.6l-0.2,0.2c-0.1,0.1-0.2,0.1-0.2,0.2c-2,2-3.3,4.5-3.8,7.2c-0.3,1.6-0.2,3.3,0.2,5l0.4,1.5
		c0,0.1,0,0.2,0,0.3c0,0.2,0,0.4-0.2,0.5C30.7,31.2,30.5,31.3,30.3,31.3z M27.8,7.3c0.5,0.5,1,1,1.5,1.5c0.2,0.2,0.3,0.4,0.3,0.6
		s-0.1,0.4-0.2,0.6c-0.6,0.7-1.2,1.4-1.7,2.1c-0.9,1.4-1.5,2.9-1.8,4.5c-0.1,0.8-0.2,1.6-0.2,2.4c0,0.9,0.1,1.8,0.3,2.7
		c0.3,1.5,0.9,2.9,1.7,4.2c0.1,0.2,0.3,0.4,0.5,0.6l0.2,0.3l0.5,0.7V26c0-0.4,0-0.9,0-1.3c0.1-1.9,0.6-3.7,1.5-5.5
		c0.8-1.5,1.9-3,3.7-4.6c0.1-0.1,0.3-0.2,0.5-0.2c0.1,0,0.2,0,0.3,0.1c0.1,0.1,0.2,0.1,0.3,0.2l2.2,2.2c0,0,0.1,0.1,0.1,0.1l0.5,0.4
		l0-0.6V6H26.4L27.8,7.3z"/>
	<path class="st0" d="M43,15.8c-0.3,0-0.7-0.2-0.7-0.6c0-0.1,0-0.2,0-0.3V2.4c0-0.1,0-0.1,0-0.2l0.1-0.6l-0.6,0.1
		c-0.1,0-0.1,0-0.2,0H29c-0.1,0-0.2,0-0.2,0c-0.4,0-0.6-0.4-0.6-0.7c0-0.4,0.3-0.6,0.6-0.7c0.1,0,0.1,0,0.2,0c0,0,13.8,0,13.8,0
		c0.1,0,0.2,0,0.3,0c0.3,0,0.6,0.3,0.6,0.6c0,0.1,0,0.2,0,0.2v13.7c0,0.1,0,0.2,0,0.3C43.6,15.5,43.3,15.8,43,15.8z"/>
</g>
</svg>
