<?xml version="1.0" encoding="utf-8"?>
<!-- Generator: Adobe Illustrator 25.0.1, SVG Export Plug-In . SVG Version: 6.00 Build 0)  -->
<svg version="1.1" id="Layer_1" xmlns="http://www.w3.org/2000/svg" xmlns:xlink="http://www.w3.org/1999/xlink" x="0px" y="0px"
	 viewBox="0 0 50 50" style="enable-background:new 0 0 50 50;" xml:space="preserve">
<style type="text/css">
	.st0{fill:#454545;}
</style>
<g>
	<path class="st0" d="M14.6,17.3c0.4-5.6,4.9-9.6,10.2-9.7c5.6-0.1,10.2,4.2,10.6,9.7c2.7-1.1,5.5-1.2,8.2-0.1
		c2.2,0.9,3.9,2.4,5,4.4c1.3,2.3,1.7,4.7,1.2,7.2c-0.5,2.5-1.9,4.6-3.9,6.2c0,0.1,0.1,0.2,0.1,0.3c0.2,0.9,0.1,1.7-0.4,2.5
		c-1.3,2.2-3.2,3.5-5.6,4.2c-2.1,0.6-4.2,0.5-6.4,0c-3.2-0.8-6.1-2.4-8.6-4.5c-0.1-0.1-0.2-0.2-0.4-0.3c-0.2,0-0.4,0-0.5,0
		c-4.5,0-9,0-13.5,0c-2.1,0-4.1-0.5-5.9-1.7c-2.7-1.8-4.3-4.3-4.7-7.5c-0.7-5.3,3-10.4,8.5-11.4c2-0.4,3.9-0.2,5.7,0.6
		C14.3,17.2,14.4,17.2,14.6,17.3z M23,35.6c-0.6-0.8-1.3-1.5-1.8-2.3c-2-2.7-3.3-5.7-3.6-9.1c-0.2-1.6-0.1-3.3,0.5-4.9
		c0.7-2.2,2-3.9,4-5.1c1.7-1,3.7-0.3,4.5,1.4c0.5,1.1,1,2.2,1.5,3.3c0.4,0.9,0.4,1.8-0.2,2.6c-0.3,0.5-0.7,0.8-1.1,1
		c-0.4,0.2-0.9,0.4-1.3,0.6c-0.8,0.4-1.1,1-0.8,1.9c0.1,0.4,0.2,0.8,0.4,1.2c1.1,2.6,2.8,4.8,5.1,6.5c1.4,1.1,2.9,1.9,4.6,2.4
		c0.9,0.3,1.5,0,1.9-0.8c0.2-0.5,0.5-0.9,0.7-1.4c0.4-0.8,1.1-1.3,2-1.4c0.6-0.1,1.2,0,1.8,0.3c0.8,0.4,1.6,0.7,2.3,1.1
		c0.5,0.2,1,0.4,1.5,0.7c0.1,0,0.2-0.1,0.3-0.2c2.7-2.4,3.8-5.3,2.9-8.8c-1.3-5.8-7.8-8.5-12.9-5.6c-0.3,0.2-0.7,0.3-1,0.1
		s-0.4-0.6-0.4-1c0-0.7,0-1.4-0.2-2.1c-1-4.7-5.5-7.8-10.2-6.9c-4.2,0.8-7.3,4.5-7.2,8.8c0,0.1,0,0.3,0,0.4c0,0.7-0.6,1.1-1.2,0.8
		c-0.1-0.1-0.2-0.1-0.3-0.2c-2-1-4.1-1.4-6.2-0.8c-4.6,1.1-7.3,5.4-6.7,9.7c0.3,2.4,1.4,4.3,3.3,5.8c1.6,1.3,3.5,1.9,5.5,1.9
		c4.1,0,8.1,0,12.2,0C22.7,35.6,22.8,35.6,23,35.6z M37.7,35.9C37.6,35.9,37.6,35.9,37.7,35.9c-0.1,0.1-0.2,0.2-0.2,0.2
		c-0.9,0.9-1.9,1.1-3.1,0.8c-0.5-0.1-0.9-0.3-1.3-0.5c-2.8-1.1-5.1-3-7-5.3c-1.3-1.6-2.3-3.4-2.9-5.4c-0.4-1.3-0.1-2.4,0.9-3.4
		c0,0,0.1-0.1,0.1-0.1c-0.9-1.8-1.8-3.6-2.7-5.5c-0.1,0.1-0.2,0.1-0.2,0.2c-0.1,0.1-0.2,0.2-0.3,0.3c-1.2,1.5-1.8,3.2-1.9,5.1
		c-0.1,2.2,0.4,4.2,1.2,6.2c0.9,2.2,2.2,4.1,3.8,5.9c2.2,2.4,4.8,4.3,8,5.5c2.2,0.8,4.5,1.2,6.8,0.8c1.4-0.2,2.7-0.8,3.8-1.7
		c0.2-0.1,0.3-0.3,0.5-0.5C41.2,37.6,39.5,36.8,37.7,35.9z M22.6,15.8c0.9,1.9,1.9,3.8,2.8,5.7c0.2-0.1,0.4-0.2,0.5-0.2
		c0.7-0.4,0.9-1,0.5-1.6c-0.2-0.4-0.4-0.7-0.5-1c-0.3-0.7-0.6-1.5-1-2.2C24.6,15.4,23.5,15.1,22.6,15.8z M38.4,34.5
		c1.9,0.9,3.8,1.9,5.7,2.8c0.5-0.7,0.5-1.3,0.1-1.9c-0.2-0.2-0.5-0.4-0.7-0.5c-1-0.5-2.1-0.9-3.1-1.4c-0.1,0-0.1-0.1-0.2-0.1
		c-0.5-0.2-1.1,0-1.4,0.5C38.6,34,38.5,34.2,38.4,34.5z"/>
</g>
</svg>
