<?xml version="1.0" encoding="utf-8"?>
<!-- Generator: Adobe Illustrator 25.0.1, SVG Export Plug-In . SVG Version: 6.00 Build 0)  -->
<svg version="1.1" id="Layer_1" xmlns="http://www.w3.org/2000/svg" xmlns:xlink="http://www.w3.org/1999/xlink" x="0px" y="0px"
	 viewBox="0 0 50 50" style="enable-background:new 0 0 50 50;" xml:space="preserve">
<style type="text/css">
	.st0{fill:#454545;}
</style>
<g>
	<g>
		<path class="st0" d="M33.1,24.6c-0.3,0-0.7-0.2-0.7-0.6c-0.6-3.9-4.2-6.6-8.1-6c-0.4,0.1-0.8-0.2-0.8-0.6
			c-0.1-0.4,0.2-0.8,0.6-0.8c4.7-0.7,9.1,2.5,9.8,7.2c0.1,0.4-0.2,0.8-0.6,0.8C33.2,24.6,33.2,24.6,33.1,24.6z"/>
		<path class="st0" d="M40.8,22.8c-0.3,0-0.7-0.2-0.7-0.6c-1.2-8-8.7-13.4-16.6-12.2c-0.4,0.1-0.8-0.2-0.8-0.6
			c-0.1-0.4,0.2-0.7,0.6-0.8C32,7.2,40.2,13.3,41.5,22c0.1,0.4-0.2,0.8-0.6,0.8C40.9,22.8,40.8,22.8,40.8,22.8z"/>
		<path class="st0" d="M49,22.2c-0.3,0-0.7-0.2-0.7-0.6C46.4,8.9,34.5,0.2,21.8,2.1c-0.4,0.1-0.8-0.2-0.8-0.6s0.2-0.8,0.6-0.8
			c13.5-2,26.1,7.2,28.1,20.7c0.1,0.4-0.2,0.8-0.6,0.8C49.1,22.2,49.1,22.2,49,22.2z"/>
	</g>
	<path class="st0" d="M30.9,49.6c-1.7,0-3.4-0.2-5.3-0.7c-4.8-1.1-9.2-3.5-13.5-7.1l-0.6-0.5L11.2,41c-1.8-1.7-3.3-3.4-4.7-5.2
		c-0.2-0.2-0.3-0.4-0.4-0.6C2.7,30.6,0.9,25.9,0.4,21c-0.3-2.8-0.1-5.2,0.7-7.6C2.2,10,4.3,7.4,7.3,5.6C8,5.2,8.8,5,9.6,5
		c1.8,0,3.3,1,4.1,2.7c0.4,0.9,0.8,1.9,1.3,2.8c0.4,0.8,0.8,1.7,1.1,2.5c0.6,1.3,0.5,2.5-0.2,3.7c-0.4,0.6-0.9,1.1-1.6,1.4l-0.7,0.3
		c-0.5,0.2-1,0.5-1.5,0.8c-1.3,0.7-1.9,2.2-1.5,3.6c0.2,0.7,0.4,1.3,0.7,1.9c1.7,4.1,4.4,7.6,8.2,10.6c2.4,1.9,4.9,3.2,7.6,3.9
		c0.4,0.1,0.8,0.2,1.1,0.2c1.1,0,1.9-0.6,2.5-1.8c0.1-0.3,0.3-0.6,0.4-0.9c0.2-0.5,0.4-0.9,0.7-1.3c0.6-1.1,1.5-1.8,2.8-2
		c0.2,0,0.4,0,0.6,0c0.6,0,1.2,0.2,2,0.5c1.2,0.6,2.5,1.2,3.7,1.8c0.3,0.2,0.7,0.3,1,0.4c0.5,0.2,0.9,0.4,1.4,0.6
		c0.5,0.2,0.9,0.7,1.2,1.4c0.1,0.1,0.1,0.3,0.2,0.4c0.5,1.5,0.3,2.9-0.4,4.1c-2,3.2-4.9,5.4-8.7,6.4C34,49.4,32.5,49.6,30.9,49.6z
		 M5.5,8.9C5.4,9,5.3,9.1,5.3,9.1C5.1,9.3,5,9.5,4.8,9.6c-1.9,2.3-2.9,5.1-3.1,8.4c-0.2,3.3,0.5,6.6,2,10.1c1.4,3.4,3.5,6.6,6.2,9.5
		c3.8,4.2,8.1,7.1,12.9,8.9c2.8,1,5.4,1.6,8,1.6l0,0c1,0,2.1-0.1,3.1-0.3c2.4-0.4,4.5-1.4,6.3-2.8c0.2-0.2,0.3-0.3,0.5-0.5l0.3-0.3
		l0.5-0.5L32,39l-0.2,0.1c-0.1,0-0.2,0.1-0.2,0.2c-0.1,0.1-0.2,0.2-0.3,0.3c-0.9,0.9-1.9,1.4-3.1,1.4c-0.4,0-0.9-0.1-1.4-0.2
		c-0.7-0.2-1.4-0.4-2.1-0.7c-4.2-1.7-7.9-4.5-11-8.3c-2.1-2.6-3.7-5.4-4.6-8.4c-0.6-1.9-0.2-3.5,1.2-4.9c0.1,0,0.1-0.1,0.2-0.2
		l0.3-0.3L6.1,8.3L5.5,8.9z M35.2,34.9c-0.8,0-1.5,0.4-2,1.1c-0.2,0.2-0.3,0.5-0.4,0.8l-0.2,0.4l-0.2,0.5l10,4.8l0.2-0.3
		c0.9-1.2,1-2.5,0.1-3.6c-0.4-0.5-1-0.8-1.4-1c-1.2-0.5-2.4-1.1-3.6-1.6l-1.4-0.7c-0.1,0-0.2-0.1-0.3-0.1
		C35.8,35,35.5,34.9,35.2,34.9z M9.6,6.5C9,6.5,8.3,6.7,7.7,7.2L7.4,7.4l4.8,9.9L13,17c0.2-0.1,0.4-0.2,0.6-0.3
		c1.3-0.7,1.7-1.9,1.1-3.3c-0.1-0.2-0.2-0.5-0.4-0.8c-0.2-0.3-0.3-0.6-0.4-0.9c-0.2-0.6-0.5-1.1-0.7-1.7c-0.3-0.6-0.5-1.2-0.8-1.9
		C11.7,7.2,10.8,6.5,9.6,6.5z"/>
</g>
</svg>
