<?xml version="1.0" encoding="utf-8"?>
<!-- Generator: Adobe Illustrator 25.0.1, SVG Export Plug-In . SVG Version: 6.00 Build 0)  -->
<svg version="1.1" id="Layer_1" xmlns="http://www.w3.org/2000/svg" xmlns:xlink="http://www.w3.org/1999/xlink" x="0px" y="0px"
	 viewBox="0 0 50 50" style="enable-background:new 0 0 50 50;" xml:space="preserve">
<style type="text/css">
	.st0{fill:#454545;}
</style>
<g>
	<g>
		<path class="st0" d="M18.8,10.2h1.6l2.2,6.8l2.2-6.9h1.6l-2.9,8.4h-2L18.8,10.2z"/>
		<path class="st0" d="M35.7,14.4c0,0.6-0.1,1.2-0.3,1.7c-0.2,0.5-0.5,1-0.9,1.4c-0.4,0.4-0.8,0.7-1.4,0.9s-1.1,0.3-1.8,0.3
			s-1.2-0.1-1.8-0.3s-1-0.5-1.4-0.9c-0.4-0.4-0.7-0.9-0.9-1.4C27.1,15.6,27,15,27,14.4s0.1-1.2,0.3-1.7s0.5-1,0.9-1.4
			c0.4-0.4,0.8-0.7,1.4-0.9s1.1-0.3,1.8-0.3s1.2,0.1,1.8,0.3c0.5,0.2,1,0.5,1.4,0.9c0.4,0.4,0.7,0.8,0.9,1.4
			C35.5,13.2,35.7,13.8,35.7,14.4z M33.9,15.6c0.1-0.4,0.2-0.8,0.2-1.2s-0.1-0.8-0.2-1.2s-0.3-0.7-0.6-0.9c-0.2-0.2-0.5-0.4-0.9-0.6
			s-0.7-0.2-1.1-0.2c-0.4,0-0.8,0.1-1.1,0.2s-0.6,0.3-0.9,0.6c-0.2,0.2-0.4,0.6-0.6,0.9s-0.2,0.8-0.2,1.2s0.1,0.8,0.2,1.2
			s0.3,0.7,0.6,0.9c0.2,0.2,0.5,0.5,0.9,0.6c0.3,0.1,0.7,0.2,1.1,0.2s0.8-0.1,1.1-0.2s0.6-0.3,0.9-0.6
			C33.5,16.2,33.7,15.9,33.9,15.6z"/>
		<path class="st0" d="M37.2,18.6v-8.4h1.5v8.4H37.2z"/>
		<path class="st0" d="M42.2,15.4v3.1h-1.5v-8.4h3.1c0.5,0,1,0.1,1.4,0.2c0.4,0.1,0.7,0.3,1,0.6c0.2,0.2,0.4,0.5,0.5,0.8
			c0.1,0.3,0.2,0.6,0.2,1c0,0.4-0.1,0.7-0.2,1c-0.1,0.3-0.3,0.6-0.6,0.9c-0.2,0.2-0.6,0.4-1,0.6c-0.4,0.1-0.8,0.2-1.3,0.2H42.2z
			 M42.2,11.6v2.5h1.3c0.3,0,0.5,0,0.7-0.1c0.2,0,0.4-0.1,0.6-0.2c0.2-0.1,0.3-0.2,0.4-0.4c0.1-0.2,0.1-0.4,0.1-0.6
			c0-0.4-0.2-0.7-0.4-0.9c-0.3-0.2-0.8-0.3-1.4-0.3L42.2,11.6L42.2,11.6z"/>
	</g>
	<path class="st0" d="M19.6,29.1v-5.9h-2.1c-1.2,0-2.1-1-2.1-2.1V7.5c0-1.2,1-2.2,2.1-2.2h30.2c1.2,0,2.2,1,2.2,2.2v13.6
		c0,1.2-1,2.1-2.2,2.1h-15c-4.5,0-8.7,1.7-11.9,4.8L19.6,29.1z M17.5,6.7c-0.5,0-0.8,0.4-0.8,0.8v13.6c0,0.5,0.4,0.8,0.8,0.8h2.1
		c0.7,0,1.3,0.6,1.3,1.3v2.9c3.3-2.7,7.4-4.2,11.7-4.2h15c0.5,0,0.8-0.4,0.8-0.8V7.5c0-0.4-0.4-0.8-0.8-0.8H17.5z"/>
	<path class="st0" d="M23.5,44.6c-1.3,0-2.6-0.2-4.1-0.5c-3.7-0.9-7-2.6-10.3-5.4l-0.4-0.4l-0.3-0.3c-1.4-1.3-2.5-2.6-3.6-3.9
		c-0.1-0.1-0.2-0.3-0.3-0.5c-2.5-3.5-4-7.1-4.3-10.9c-0.2-2.1,0-4,0.5-5.8c0.9-2.6,2.5-4.6,4.7-6c0.6-0.3,1.2-0.5,1.8-0.5
		c1.4,0,2.6,0.8,3.2,2.1c0.3,0.7,0.6,1.4,1,2.1c0.3,0.6,0.6,1.3,0.9,1.9c0.4,1,0.4,2-0.2,2.9c-0.3,0.5-0.7,0.9-1.2,1.1l-0.5,0.2
		c-0.4,0.2-0.8,0.4-1.1,0.6c-1,0.5-1.4,1.6-1.1,2.7c0.1,0.5,0.3,1,0.5,1.5c1.3,3.1,3.4,5.8,6.2,8c1.8,1.4,3.7,2.4,5.7,3
		c0.3,0.1,0.6,0.1,0.8,0.1c0.8,0,1.4-0.4,1.9-1.3c0.1-0.2,0.2-0.4,0.3-0.7c0.2-0.3,0.3-0.7,0.5-1c0.5-0.9,1.2-1.4,2.2-1.6
		c0.1,0,0.3,0,0.4,0c0.5,0,1,0.1,1.5,0.4c0.9,0.5,1.9,0.9,2.8,1.3c0.2,0.1,0.5,0.2,0.8,0.3c0.3,0.2,0.7,0.3,1,0.5
		c0.4,0.2,0.7,0.6,0.9,1.1c0,0.1,0.1,0.2,0.1,0.3c0.4,1.1,0.2,2.2-0.3,3.2c-1.5,2.5-3.7,4.1-6.6,4.9C25.9,44.5,24.7,44.6,23.5,44.6z
		 M4.3,13.7c-0.1,0.1-0.1,0.1-0.2,0.2C4,14,3.9,14.1,3.8,14.2C2.4,16,1.6,18,1.5,20.6c-0.1,2.5,0.4,5,1.5,7.6c1.1,2.6,2.7,5,4.7,7.2
		c2.9,3.2,6.1,5.4,9.7,6.7c2.1,0.8,4.1,1.2,6.1,1.2l0,0c0.8,0,1.6-0.1,2.3-0.2c1.8-0.3,3.4-1,4.8-2.1c0.1-0.1,0.3-0.2,0.4-0.4
		l0.5-0.5l-7.1-3.5l-0.1,0.1c-0.1,0-0.1,0.1-0.2,0.1L23.8,37c-0.7,0.7-1.5,1.1-2.4,1.1c-0.3,0-0.7,0-1.1-0.2c-0.5-0.1-1-0.3-1.6-0.5
		c-3.2-1.3-6-3.4-8.4-6.3c-1.6-2-2.8-4.1-3.5-6.5c-0.5-1.5-0.1-2.7,1-3.8c0,0,0.1-0.1,0.1-0.1l0.1-0.1l0-0.2l-3.4-7L4.3,13.7z
		 M26.8,33.5c-0.6,0-1.1,0.3-1.4,0.8c-0.1,0.2-0.2,0.4-0.3,0.6l-0.3,0.5l7.5,3.6l0.2-0.2c0.7-0.9,0.7-1.8,0.1-2.7
		c-0.3-0.4-0.7-0.6-1-0.7c-0.9-0.4-1.8-0.8-2.7-1.2l-1.1-0.5c-0.1,0-0.1-0.1-0.2-0.1C27.2,33.5,27,33.5,26.8,33.5z M7.4,11.9
		c-0.5,0-1,0.2-1.4,0.5l-0.2,0.1L9.4,20l0.5-0.2c0.2-0.1,0.3-0.1,0.4-0.2c1-0.5,1.2-1.4,0.8-2.4c-0.1-0.2-0.2-0.4-0.3-0.6
		c-0.1-0.2-0.2-0.5-0.4-0.7c-0.2-0.4-0.4-0.9-0.6-1.3c-0.2-0.5-0.4-0.9-0.6-1.4C8.9,12.4,8.2,11.9,7.4,11.9z"/>
</g>
</svg>
